<svg width="1440" height="190" xmlns="http://www.w3.org/2000/svg">

 <g>
  <title>background</title>
  <rect fill="none" id="canvas_background" height="200" width="1442" y="-1" x="-1"/>
 </g>
 <g>
  <title>Layer 1</title>
  <path id="svg_1" d="m-0.333344,151.333334l48,-26.7c48,-26.3 144,-80.3 240,-74.6c96,5.3 192,69.3 288,64c96,-5.7 192,-79.7 288,-90.7c96,-11 192,43 288,69.3c96,26.7 192,26.7 240,26.7l48,0l0,96l-48,0c-48,0 -144,0 -240,0c-96,0 -192,0 -288,0c-96,0 -192,0 -288,0c-96,0 -192,0 -288,0c-96,0 -192,0 -240,0l-48,0l0,-64z" fill="#F9CBFF"/>
 </g>
</svg>
