<svg width="1440" height="123" xmlns="http://www.w3.org/2000/svg">

 <g>
  <title>background</title>
  <rect fill="none" id="canvas_background" height="125" width="1442" y="-1" x="-1"/>
 </g>
 <g>
  <title>Layer 1</title>
  <path stroke="null" id="svg_1" d="m0,117.999996l48,-6.576041c48,-6.330208 144,-19.851041 240,-36.014582c96,-16.409374 192,-36.076041 288,-32.818749c96,3.503125 192,29.315624 288,26.242707c96,-3.072917 192,-36.260415 288,-36.076041c96,-0.184375 192,33.003124 240,49.166665l48,16.409374l0,-98.33333l-48,0c-48,0 -144,0 -240,0c-96,0 -192,0 -288,0c-96,0 -192,0 -288,0c-96,0 -192,0 -288,0c-96,0 -192,0 -240,0l-48,0l0,117.999996z" fill="#F9CBFF"/>
 </g>
</svg>